<?xml version="1.0" encoding="UTF-8" standalone="no"?>
<!-- Created with Inkscape (http://www.inkscape.org/) -->

<svg
   xmlns:dc="http://purl.org/dc/elements/1.1/"
   xmlns:cc="http://creativecommons.org/ns#"
   xmlns:rdf="http://www.w3.org/1999/02/22-rdf-syntax-ns#"
   xmlns:svg="http://www.w3.org/2000/svg"
   xmlns="http://www.w3.org/2000/svg"
   xmlns:sodipodi="http://sodipodi.sourceforge.net/DTD/sodipodi-0.dtd"
   xmlns:inkscape="http://www.inkscape.org/namespaces/inkscape"
   width="210mm"
   height="297mm"
   viewBox="0 0 210 297"
   version="1.1"
   id="svg860"
   inkscape:version="0.92.5 (2060ec1f9f, 2020-04-08)"
   sodipodi:docname="rysunek-1.svg">
  <defs
     id="defs854">
    <inkscape:perspective
       sodipodi:type="inkscape:persp3d"
       inkscape:vp_x="-22.827049 : 229.77744 : 1"
       inkscape:vp_y="0 : 3528.485 : 0"
       inkscape:vp_z="316.58615 : 229.77744 : 1"
       inkscape:persp3d-origin="146.87955 : 55.117439 : 1"
       id="perspective862" />
  </defs>
  <sodipodi:namedview
     id="base"
     pagecolor="#ffffff"
     bordercolor="#666666"
     borderopacity="1.0"
     inkscape:pageopacity="0.0"
     inkscape:pageshadow="2"
     inkscape:zoom="0.35"
     inkscape:cx="-142.44156"
     inkscape:cy="1223.2992"
     inkscape:document-units="mm"
     inkscape:current-layer="layer1"
     showgrid="false"
     inkscape:window-width="1920"
     inkscape:window-height="1016"
     inkscape:window-x="0"
     inkscape:window-y="0"
     inkscape:window-maximized="1" />
  <metadata
     id="metadata857">
    <rdf:RDF>
      <cc:Work
         rdf:about="">
        <dc:format>image/svg+xml</dc:format>
        <dc:type
           rdf:resource="http://purl.org/dc/dcmitype/StillImage" />
        <dc:title></dc:title>
      </cc:Work>
    </rdf:RDF>
  </metadata>
  <g
     inkscape:label="Layer 1"
     inkscape:groupmode="layer"
     id="layer1">
    <g
       id="g1449"
       transform="translate(1.5119051,-43.089286)">
      <path
         sodipodi:open="true"
         transform="matrix(0.98180316,0.18990142,-0.57376881,0.81901731,0,0)"
         d="m 141.36806,174.97465 a 38.102207,57.021057 0 0 1 -8.42777,-75.154009 38.102207,57.021057 0 0 1 49.02922,-20.57925"
         sodipodi:end="5.1707534"
         sodipodi:start="2.2435106"
         sodipodi:ry="57.021057"
         sodipodi:rx="38.102207"
         sodipodi:cy="130.37659"
         sodipodi:cx="165.10997"
         sodipodi:type="arc"
         id="path1435"
         style="opacity:1;vector-effect:none;fill:none;fill-opacity:1;fill-rule:evenodd;stroke:#000000;stroke-width:0.52325958;stroke-linecap:butt;stroke-linejoin:miter;stroke-miterlimit:4;stroke-dasharray:none;stroke-dashoffset:0;stroke-opacity:0.71764706" />
      <path
         sodipodi:nodetypes="cc"
         inkscape:connector-curvature="0"
         id="path1437"
         d="m 38.400608,170.15326 60.14168,79.29636"
         style="fill:none;stroke:#000000;stroke-width:0.16100588px;stroke-linecap:butt;stroke-linejoin:miter;stroke-opacity:1" />
      <path
         sodipodi:open="true"
         transform="matrix(0.96362429,-0.26726061,-0.24021239,0.97072036,0,0)"
         d="m 253.48515,243.60033 a 54.067921,48.65369 0 0 1 23.44946,65.18623 54.067921,48.65369 0 0 1 -72.24026,21.64928 54.067921,48.65369 0 0 1 -24.66568,-64.82176 54.067921,48.65369 0 0 1 71.825,-22.74059"
         sodipodi:end="5.1552617"
         sodipodi:start="5.1889334"
         sodipodi:ry="48.65369"
         sodipodi:rx="54.067921"
         sodipodi:cy="286.83328"
         sodipodi:cx="228.68358"
         sodipodi:type="arc"
         id="path1439"
         style="opacity:1;vector-effect:none;fill:none;fill-opacity:1;fill-rule:evenodd;stroke:#000000;stroke-width:0.84380186;stroke-linecap:butt;stroke-linejoin:miter;stroke-miterlimit:4;stroke-dasharray:none;stroke-dashoffset:0;stroke-opacity:0.71764706" />
      <path
         sodipodi:nodetypes="cc"
         inkscape:connector-curvature="0"
         id="path1441"
         d="m 133.192,99.456339 67.13538,77.347231"
         style="fill:none;stroke:#000000;stroke-width:0.26458332px;stroke-linecap:butt;stroke-linejoin:miter;stroke-opacity:1" />
    </g>
    <path
       style="opacity:1;vector-effect:none;fill:none;fill-opacity:1;fill-rule:evenodd;stroke:#000000;stroke-width:0.4928638;stroke-linecap:butt;stroke-linejoin:miter;stroke-miterlimit:4;stroke-dasharray:none;stroke-dashoffset:0;stroke-opacity:0.71764706"
       id="path1443"
       sodipodi:type="arc"
       sodipodi:cx="123.82912"
       sodipodi:cy="111.35728"
       sodipodi:rx="71.793419"
       sodipodi:ry="70.080032"
       sodipodi:start="1.5890513"
       sodipodi:end="0.020666029"
       sodipodi:open="true"
       d="M 122.5186,181.42563 A 71.793419,70.080032 0 0 1 56.99437,136.95009 71.793419,70.080032 0 0 1 74.060978,60.848308 71.793419,70.080032 0 0 1 152.62842,47.16283 a 71.793419,70.080032 0 0 1 42.97879,65.64262"
       transform="matrix(0.9915128,-0.13000912,-0.32090034,0.94711297,0,0)" />
    <path
       style="fill:none;stroke:#000000;stroke-width:0.26458332px;stroke-linecap:butt;stroke-linejoin:miter;stroke-opacity:1"
       d="M 12.97711,127.28038 4.7247023,107.06696"
       id="path1451"
       inkscape:connector-curvature="0"
       sodipodi:nodetypes="cc" />
    <path
       style="fill:none;stroke:#000000;stroke-width:0.26458332px;stroke-linecap:butt;stroke-linejoin:miter;stroke-opacity:1"
       d="m 156.09304,39.770513 c -3.77976,-3.023809 -6.16159,-13.553419 -6.16159,-13.553419"
       id="path1453"
       inkscape:connector-curvature="0"
       sodipodi:nodetypes="cc" />
    <path
       style="opacity:1;vector-effect:none;fill:none;fill-opacity:1;fill-rule:evenodd;stroke:#000000;stroke-width:0.51729381;stroke-linecap:butt;stroke-linejoin:miter;stroke-miterlimit:4;stroke-dasharray:none;stroke-dashoffset:0;stroke-opacity:0.71764706"
       id="path1443-3"
       sodipodi:type="arc"
       sodipodi:cx="115.94837"
       sodipodi:cy="98.336723"
       sodipodi:rx="75.939659"
       sodipodi:ry="65.668793"
       sodipodi:start="2.3989021"
       sodipodi:end="6.0157127"
       sodipodi:open="true"
       d="M 60.007294,142.74671 A 75.939659,65.668793 0 0 1 48.000945,69.011903 75.939659,65.668793 0 0 1 123.3574,32.981225 75.939659,65.668793 0 0 1 189.18777,80.980806"
       transform="matrix(0.99180404,-0.12776832,-0.32602059,0.94536267,0,0)" />
    <path
       style="opacity:1;fill:#008000;fill-opacity:1;fill-rule:evenodd;stroke:#000000;stroke-width:5.39932537;stroke-linecap:butt;stroke-linejoin:bevel;stroke-miterlimit:4;stroke-dasharray:none;stroke-opacity:0.71764706;paint-order:normal"
       d="m 447.22324,838.98178 c -28.68022,-7.44837 -53.93131,-29.27492 -62.30737,-53.85732 -5.73399,-16.82831 -5.80037,-51.62523 -0.14066,-73.73225 19.7724,-77.23175 95.23148,-162.33369 183.32777,-206.755 39.12566,-19.72858 63.67437,-26.5254 101.59831,-28.12955 38.68783,-1.63645 45.49829,-6.43003 9.13546,-6.43003 -100.55694,0 -224.68891,84.98349 -279.61211,191.42858 -16.62719,32.22468 -21.92176,50.3328 -24.12081,82.49617 l -1.83111,26.78188 -66.85845,-88.21045 c -36.77215,-48.51575 -66.8793,-89.8176 -66.90476,-91.78189 -0.0254,-1.96429 -1.43917,-3.64609 -3.14155,-3.73731 -1.70238,-0.0911 -21.5299,-24.63386 -44.06115,-54.53918 l -40.96591,-54.37331 -0.055,-21.88938 c -0.0933,-37.12627 11.81762,-71.82221 38.89202,-113.29075 64.15428,-98.26198 179.54491,-168.4128 260.79743,-158.54972 24.91754,3.02468 40.25294,11.44743 58.46337,32.11012 70.92569,80.47674 228.12632,263.07244 227.24423,263.95453 -0.60734,0.60737 -5.7604,-0.84114 -11.4512,-3.21891 -5.6908,-2.37778 -12.3168,-4.32323 -14.7244,-4.32323 -7.41903,0 -4.8344,5.15991 3.50174,6.99083 14.97295,3.2886 37.38826,18.47308 46.22069,31.31057 9.66546,14.04823 17.32866,39.50111 17.32866,57.55614 0,31.12414 -21.02795,85.06406 -47.83886,122.71389 -45.29086,63.6008 -121.61414,120.17254 -190.73257,141.37331 -21.7162,6.66103 -75.77094,10.25566 -91.76377,6.10226 z"
       id="path1548"
       inkscape:connector-curvature="0"
       transform="scale(0.26458333)" />
    <path
       style="opacity:1;fill:#008000;fill-opacity:1;fill-rule:evenodd;stroke:#000000;stroke-width:5.39932537;stroke-linecap:butt;stroke-linejoin:bevel;stroke-miterlimit:4;stroke-dasharray:none;stroke-opacity:0.71764706;paint-order:normal"
       d="M 180.41558,587.13392 C 57.56086,572.62866 14.400663,461.33141 80.915286,330.55237 159.13239,176.76427 357.84718,62.375681 496.12987,91.53741 c 77.35188,16.31235 121.75342,81.25053 110.69311,161.89102 -3.82426,27.88253 -11.64186,55.57359 -14.68166,52.00445 C 485.69101,180.44485 485.05864,179.94669 433.27272,180.2798 c -26.50623,0.17049 -34.9956,1.43117 -54.20374,8.04921 -90.19888,31.07747 -175.5806,107.20943 -214.35615,191.13402 -12.58398,27.23638 -18.48683,52.1206 -18.54073,78.16075 l -0.0422,20.40331 33.29564,43.8824 c 18.3126,24.13534 36.98944,48.38243 41.50408,53.88243 l 8.20843,10 -7.93265,1.80483 c -10.19708,2.32 -17.96695,2.23183 -40.78979,-0.46283 z"
       id="path1550"
       inkscape:connector-curvature="0"
       transform="scale(0.26458333)" />
    <path
       style="opacity:1;fill:#008000;fill-opacity:1;fill-rule:evenodd;stroke:#000000;stroke-width:5.39932537;stroke-linecap:butt;stroke-linejoin:bevel;stroke-miterlimit:4;stroke-dasharray:none;stroke-opacity:0.71764706;paint-order:normal"
       d="M 32.306699,435.07763 C 18.327201,400.82583 17.259396,386.29809 26.145201,351.24895 54.181726,240.66179 174.519,128.80923 316.12987,81.710453 c 49.82874,-16.572689 79.89142,-21.085677 130,-19.515499 35.6896,1.118351 44.708,2.405054 65.1022,9.288476 30.60845,10.33091 51.73174,24.990601 56.64002,39.30849 3.77735,11.0189 1.66989,13.98255 -4.58431,6.44671 -6.75746,-8.14224 -33.06209,-21.123622 -54.34029,-26.817042 -30.20494,-8.08195 -54.34331,-9.876986 -85.67477,-6.371159 C 329.13804,94.583611 236.58745,142.43561 157.49253,221.4684 86.080812,292.82402 46.604223,370.61563 45.682746,441.79803 c -0.160663,12.41092 -0.546654,22.56532 -0.85776,22.56532 -0.311103,0 -5.944333,-13.17857 -12.518287,-29.28572 z"
       id="path1552"
       inkscape:connector-curvature="0"
       transform="scale(0.26458333)" />
    <path
       style="opacity:1;fill:#008000;fill-opacity:1;fill-rule:evenodd;stroke:#000000;stroke-width:5.39932537;stroke-linecap:butt;stroke-linejoin:bevel;stroke-miterlimit:4;stroke-dasharray:none;stroke-opacity:0.71764706;paint-order:normal"
       d=""
       id="path1554"
       inkscape:connector-curvature="0"
       transform="scale(0.26458333)" />
    <path
       style="opacity:1;fill:#008000;fill-opacity:1;fill-rule:evenodd;stroke:#000000;stroke-width:5.39932537;stroke-linecap:butt;stroke-linejoin:bevel;stroke-miterlimit:4;stroke-dasharray:none;stroke-opacity:0.71764706;paint-order:normal"
       d="m 593.91503,153.49817 c -4.36101,-7.38129 -10.37881,-17.27768 -13.37289,-21.99196 -2.99407,-4.71429 -6.35299,-12.42858 -7.46425,-17.14286 -1.92229,-8.15491 -1.51511,-7.94665 8.37931,4.28571 9.75593,12.06116 23.03022,40.82548 21.20826,45.95662 -0.45172,1.27217 -4.38941,-3.72621 -8.75043,-11.10751 z"
       id="path1556"
       inkscape:connector-curvature="0"
       transform="scale(0.26458333)" />
    <path
       style="opacity:1;fill:#008000;fill-opacity:1;fill-rule:evenodd;stroke:#000000;stroke-width:5.39932537;stroke-linecap:butt;stroke-linejoin:bevel;stroke-miterlimit:4;stroke-dasharray:none;stroke-opacity:0.71764706;paint-order:normal"
       d="m 578.51082,137.22049 c 0,-5.5346 3.6713,-5.5346 5.79512,0 0.94289,2.45713 0.0574,4.28572 -2.07527,4.28572 -2.04592,0 -3.71985,-1.92858 -3.71985,-4.28572 z"
       id="path1558"
       inkscape:connector-curvature="0"
       transform="scale(0.26458333)" />
    <path
       style="opacity:1;fill:#008000;fill-opacity:1;fill-rule:evenodd;stroke:#000000;stroke-width:5.39932537;stroke-linecap:butt;stroke-linejoin:bevel;stroke-miterlimit:4;stroke-dasharray:none;stroke-opacity:0.71764706;paint-order:normal"
       d=""
       id="path1560"
       inkscape:connector-curvature="0"
       transform="scale(0.26458333)" />
    <path
       style="opacity:1;fill:#008000;fill-opacity:1;fill-rule:evenodd;stroke:#000000;stroke-width:5.39932537;stroke-linecap:butt;stroke-linejoin:bevel;stroke-miterlimit:4;stroke-dasharray:none;stroke-opacity:0.71764706;paint-order:normal"
       d="m 576.22423,141.6589 c -0.73694,-1.1924 0.37825,-4.5177 2.4782,-7.38955 3.66339,-5.00998 3.94633,-4.98193 6.98307,0.69227 2.65629,4.96332 2.25798,6.15101 -2.47819,7.38955 -3.10375,0.81164 -6.24613,0.50012 -6.98308,-0.69227 z"
       id="path1562"
       inkscape:connector-curvature="0"
       transform="scale(0.26458333)" />
    <path
       style="opacity:1;fill:#008000;fill-opacity:1;fill-rule:evenodd;stroke:#000000;stroke-width:5.39932537;stroke-linecap:butt;stroke-linejoin:bevel;stroke-miterlimit:4;stroke-dasharray:none;stroke-opacity:0.71764706;paint-order:normal"
       d=""
       id="path1564"
       inkscape:connector-curvature="0"
       transform="scale(0.26458333)" />
  </g>
</svg>
